<svg xmlns="http://www.w3.org/2000/svg" width="300" height="225" viewBox="0 0 300 225">
  <g id="Group_11240" data-name="Group 11240" transform="translate(22812 17143)">
    <path id="Path_3827" data-name="Path 3827" d="M5.357,0H294.643C297.6,0,300,2.846,300,6.356V218.644c0,3.51-2.4,6.356-5.357,6.356H5.357C2.4,225,0,222.154,0,218.644V6.356C0,2.846,2.4,0,5.357,0Z" transform="translate(-22812 -17143)" fill="#f39b33"/>
    <path id="Intersection_38" data-name="Intersection 38" d="M148.577,52.031C104.348,46.306,53.807,46.208,0,49.757V5A5.187,5.187,0,0,1,5.358,0H294.643A5.187,5.187,0,0,1,300,5V69.342C265.867,66.21,217.237,60.918,148.577,52.031Z" transform="translate(-22812 -17143)" fill="#e89431"/>
  </g>
</svg>
